<!-- Modified SVG without the inline fill attribute -->
<svg width="84" height="84" viewBox="0 0 84 84" fill="none" xmlns="http://www.w3.org/2000/svg">
  <g id="send-button">
    <circle id="send-img" cx="42" cy="42" r="42" fill="#D8DEE9"/>
    <g id="&#240;&#159;&#166;&#134; icon &#34;message&#34;">
      <path id="Vector" d="M69.6795 35.0161L33.2815 16.8171C31.845 16.1021 30.2231 15.8476 28.6367 16.0882C27.0503 16.3288 25.5767 17.0528 24.4168 18.1615C23.257 19.2702 22.4673 20.7096 22.1554 22.2835C21.8435 23.8575 22.0246 25.4893 22.6741 26.9565L28.9137 40.9178C29.0553 41.2553 29.1282 41.6177 29.1282 41.9837C29.1282 42.3497 29.0553 42.7121 28.9137 43.0496L22.6741 57.0109C22.1455 58.1983 21.9221 59.4989 22.024 60.7946C22.126 62.0903 22.5502 63.34 23.2579 64.4301C23.9657 65.5202 24.9347 66.4162 26.0768 67.0365C27.2189 67.6569 28.498 67.982 29.7977 67.9823C31.015 67.9701 32.2142 67.6859 33.3075 67.1503L69.7055 48.9513C70.9966 48.3018 72.0818 47.3064 72.8401 46.0761C73.5984 44.8458 74 43.4289 74 41.9837C74 40.5385 73.5984 39.1216 72.8401 37.8913C72.0818 36.661 70.9966 35.6656 69.7055 35.0161H69.6795ZM67.3656 44.2976L30.9676 62.4966C30.4897 62.7261 29.953 62.804 29.4295 62.7198C28.906 62.6356 28.4208 62.3934 28.0389 62.0256C27.657 61.6579 27.3967 61.1821 27.2928 60.6622C27.1889 60.1423 27.2465 59.603 27.4578 59.1168L33.6715 45.1555C33.7519 44.9691 33.8214 44.7781 33.8795 44.5836H51.7925C52.482 44.5836 53.1433 44.3096 53.6309 43.8221C54.1184 43.3345 54.3923 42.6732 54.3923 41.9837C54.3923 41.2942 54.1184 40.6329 53.6309 40.1453C53.1433 39.6578 52.482 39.3838 51.7925 39.3838H33.8795C33.8214 39.1893 33.7519 38.9983 33.6715 38.8119L27.4578 24.8506C27.2465 24.3644 27.1889 23.8251 27.2928 23.3052C27.3967 22.7853 27.657 22.3095 28.0389 21.9418C28.4208 21.574 28.906 21.3318 29.4295 21.2476C29.953 21.1634 30.4897 21.2413 30.9676 21.4708L67.3656 39.6698C67.7915 39.888 68.1489 40.2195 68.3985 40.6277C68.648 41.036 68.7801 41.5052 68.7801 41.9837C68.7801 42.4622 68.648 42.9314 68.3985 43.3397C68.1489 43.7479 67.7915 44.0794 67.3656 44.2976Z" fill="black"/>
    </g>
  </g>
</svg>
